<svg id="Calque_1" xmlns="http://www.w3.org/2000/svg" viewBox="0 0 1094.95 416.12"><defs><style>.cls-1{fill:#012233;}.cls-2{fill:#33ee87;}.cls-3{fill:#778387;}</style></defs><g><path class="cls-1" d="M1.11,10.99H196.12V56.41H55.42V126h120.31v45.79H55.42v101.1H1.11V10.99Z"/><path class="cls-1" d="M213.22,28.94c0-17.58,12.6-28.94,29.1-28.94s28.8,11.35,28.8,28.94-12.6,28.94-28.8,28.94-29.1-11.35-29.1-28.94Zm4.2,52.38h50.1v191.57h-50.1V81.32Z"/><path class="cls-1" d="M292.72,179.11v-2.93c0-63,39.3-99.26,92.71-99.26,36.6,0,59.7,14.29,71.7,35.9V.73h49.8V272.88h-49.8v-34.06c-11.4,21.61-37.8,38.09-71.7,38.09-52.2,0-92.71-33.7-92.71-97.8Zm165.61-1.1v-2.93c0-37.36-24-57.14-58.2-57.14s-56.1,20.15-56.1,57.14v2.93c0,37,24,57.14,56.4,57.14s57.9-19.41,57.9-57.14Z"/><path class="cls-1" d="M542.93,81.32h49.8v35.16c10.5-22.34,35.4-39.56,71.1-39.56,42.3,0,71.7,23.44,71.7,78.75v117.21h-50.1v-108.42c0-30.04-14.1-43.59-42.3-43.59s-50.4,15.02-50.4,47.62v104.39h-49.8V81.32Z"/><path class="cls-1" d="M864.54,276.91c-63.9,0-107.11-36.26-107.11-97.43v-2.93c0-60.44,44.4-99.63,105.01-99.63,54.9,0,100.21,28.94,100.21,97.43v15.38h-154.81c3.6,34.07,25.2,48.72,58.2,48.72,27.9,0,43.5-10.26,48-26.01h47.7c-7.2,41.39-42,64.47-97.21,64.47Zm-55.2-121.24h104.11c-1.8-27.47-19.8-40.66-51-40.66-24.9,0-46.8,9.89-53.1,40.66Z"/><path class="cls-1" d="M996.84,209.88V120.87h-27.9v-39.56h27.9V37h50.4v44.32h47.1v39.56h-47.1v84.61c0,20.88,9.3,27.47,25.5,27.47,9,0,15.3-1.46,22.2-3.66v42.49c-8.1,2.2-18.3,4.76-33.3,4.76-42,0-64.8-21.61-64.8-66.66Z"/></g><g><path class="cls-1" d="M1.28,362.7H7.78c.71,0,1.28,.58,1.28,1.28v18.86c0,.71,.58,1.28,1.28,1.28H51.7c.71,0,1.28-.58,1.28-1.28v-18.86c0-.71,.58-1.28,1.28-1.28h6.5c.71,0,1.28,.58,1.28,1.28v49.82c0,.71-.58,1.28-1.28,1.28h-6.5c-.71,0-1.28-.58-1.28-1.28v-18.86c0-.71-.58-1.28-1.28-1.28H10.35c-.71,0-1.28,.58-1.28,1.28v18.86c0,.71-.58,1.28-1.28,1.28H1.28c-.71,0-1.28-.58-1.28-1.28v-49.82c0-.71,.58-1.28,1.28-1.28Z"/><path class="cls-1" d="M220.48,362.7c2.45,0,4.61,.49,6.48,1.46,1.87,.97,3.43,2.21,4.68,3.71,1.25,1.5,2.2,3.15,2.85,4.95,.65,1.8,.97,3.55,.97,5.25v5.62c0,1.65-.33,3.39-.97,5.21-.65,1.82-1.6,3.48-2.85,4.98-1.25,1.5-2.81,2.74-4.68,3.71-1.87,.97-4.04,1.46-6.48,1.46h0c-1.17,0-1.73,1.44-.87,2.23l12.6,11.58c.86,.79,.3,2.23-.87,2.23h-10.14c-.32,0-.63-.12-.87-.33l-25.29-23.04c-.27-.24-.42-.59-.42-.95v-.02c0-.71,.58-1.28,1.28-1.28h24.57c1,0,1.87-.19,2.62-.56,.75-.37,1.36-.84,1.84-1.39,.47-.55,.84-1.17,1.09-1.87,.25-.7,.37-1.35,.37-1.95v-5.62c0-.6-.13-1.25-.37-1.95-.25-.7-.61-1.32-1.09-1.87-.48-.55-1.09-1.01-1.84-1.39-.75-.37-1.62-.56-2.62-.56h-36.71c-.71,0-1.28,.58-1.28,1.28v40.22c0,.71-.58,1.28-1.28,1.28h-6.5c-.71,0-1.28-.58-1.28-1.28v-49.82c0-.71,.58-1.28,1.28-1.28h45.78Z"/><path class="cls-1" d="M261.3,362.7h8.82c.49,0,.94,.28,1.15,.72l17.53,35.48c.47,.95,1.83,.95,2.3,0l17.6-35.48c.22-.44,.66-.71,1.15-.71h8.75c.95,0,1.57,1,1.15,1.85l-24.66,49.82c-.22,.44-.66,.71-1.15,.71h-7.92c-.49,0-.93-.28-1.15-.71l-24.73-49.82c-.42-.85,.2-1.86,1.15-1.86Z"/><path class="cls-1" d="M347.67,384.14h54.24c.71,0,1.28,.58,1.28,1.28v6.95c0,.71-.58,1.28-1.28,1.28h-45.17c-.71,0-1.28,.58-1.28,1.28v9.27c0,.71,.58,1.28,1.28,1.28h45.17c.71,0,1.28,.58,1.28,1.28v7.02c0,.71-.58,1.28-1.28,1.28h-54.24c-.71,0-1.28-.58-1.28-1.28v-28.38c0-.71,.58-1.28,1.28-1.28Zm0-21.43h54.24c.71,0,1.28,.58,1.28,1.28v6.95c0,.71-.58,1.28-1.28,1.28h-45.17c-.71,0-1.28,.58-1.28,1.28v9.27c0,.71,.58,1.28,1.28,1.28h45.17c.71,0,1.28,.58,1.28,1.28v7.02c0,.71-.58,1.28-1.28,1.28h-54.24c-.71,0-1.28-.58-1.28-1.28v-28.38c0-.71,.58-1.28,1.28-1.28Z"/><path class="cls-1" d="M444.34,362.7h40.31c.71,0,1.28,.58,1.28,1.28v7.02c0,.71-.58,1.28-1.28,1.28h-40.31c-1,0-1.89,.19-2.66,.56-.78,.37-1.41,.85-1.91,1.42-.5,.57-.87,1.21-1.12,1.91-.25,.7-.37,1.37-.37,2.02s.12,1.32,.37,2.02c.25,.7,.62,1.34,1.12,1.91,.5,.57,1.14,1.05,1.91,1.42,.77,.37,1.66,.56,2.66,.56h31.78c2.1,0,4.07,.41,5.92,1.24,1.85,.82,3.46,1.95,4.83,3.37,1.37,1.42,2.45,3.06,3.22,4.91,.77,1.85,1.16,3.82,1.16,5.92,0,1.7-.33,3.46-.97,5.28-.65,1.82-1.61,3.5-2.89,5.02-1.27,1.52-2.85,2.77-4.72,3.75-1.87,.97-4.06,1.46-6.56,1.46h-40.38c-.71,0-1.28-.58-1.28-1.28v-7.02c0-.71,.58-1.28,1.28-1.28h40.38c1,0,1.89-.19,2.66-.56,.77-.37,1.41-.85,1.91-1.42,.5-.57,.87-1.21,1.12-1.91,.25-.7,.37-1.37,.37-2.02s-.13-1.32-.37-2.02c-.25-.7-.63-1.34-1.12-1.91-.5-.57-1.14-1.05-1.91-1.42-.78-.37-1.66-.56-2.66-.56h-31.78c-2.15,0-4.15-.41-6-1.24-1.85-.82-3.45-1.94-4.8-3.34-1.35-1.4-2.41-3.04-3.19-4.91-.78-1.87-1.16-3.86-1.16-5.96,0-1.7,.32-3.46,.97-5.28,.65-1.82,1.61-3.5,2.89-5.02,1.27-1.52,2.86-2.77,4.76-3.75,1.9-.97,4.07-1.46,6.52-1.46Z"/><path class="cls-1" d="M515.02,362.7h59.48c.71,0,1.28,.58,1.28,1.28v7.02c0,.71-.58,1.28-1.28,1.28h-23.89c-.71,0-1.28,.58-1.28,1.28v40.22c0,.71-.58,1.28-1.28,1.28h-6.5c-.71,0-1.28-.58-1.28-1.28v-40.22c0-.71-.58-1.28-1.28-1.28h-23.96c-.71,0-1.28-.58-1.28-1.28v-7.02c0-.71,.58-1.28,1.28-1.28Z"/><path class="cls-2" d="M118.5,362.68c-2.53,0-4.63,1.2-6.24,3.56l-32.59,47.94c-.34,.5-.21,1.17,.29,1.51,.18,.12,.39,.19,.61,.19h9.56c.36,0,.7-.18,.9-.48l27.31-40.35,26.8,40.34c.2,.3,.54,.48,.9,.49h10.01c.6,0,1.09-.49,1.09-1.08,0-.22-.06-.43-.19-.61l-32.21-47.94c-1.49-2.29-3.71-3.57-6.25-3.57h0Z"/></g><g><path class="cls-3" d="M659.14,385.79v8.02h22.15v7.26c0,.7-.17,1.47-.5,2.3-.33,.81-.82,1.57-1.44,2.25-.62,.68-1.37,1.26-2.22,1.73-.9,.5-1.92,.75-3.02,.75h-33.51c-1.14,0-2.19-.23-3.11-.69-.89-.45-1.65-1.01-2.25-1.67-.61-.67-1.07-1.44-1.38-2.3-.29-.83-.45-1.62-.45-2.37v-22.62c0-.74,.16-1.54,.45-2.38,.31-.85,.77-1.62,1.38-2.29,.6-.66,1.36-1.22,2.25-1.67,.92-.46,1.99-.69,3.19-.69h37.05v-8.02h-37.05c-2.39,0-4.53,.47-6.36,1.41-1.85,.96-3.41,2.18-4.62,3.63-1.22,1.47-2.17,3.11-2.8,4.87-.64,1.76-.96,3.49-.96,5.14v22.62c0,1.6,.32,3.32,.96,5.11,.63,1.78,1.58,3.43,2.8,4.9,1.21,1.45,2.76,2.68,4.59,3.63,1.8,.94,3.93,1.41,6.31,1.41h33.51c2.43,0,4.58-.47,6.39-1.41,1.83-.95,3.37-2.17,4.58-3.63,1.23-1.47,2.17-3.11,2.81-4.87,.63-1.76,.95-3.49,.95-5.14v-15.28h-29.7Z"/><path class="cls-3" d="M780.35,373.31c-.64-1.76-1.58-3.4-2.81-4.87-1.21-1.46-2.75-2.68-4.58-3.63-1.81-.94-3.93-1.41-6.31-1.41h-48.17v52.72h7.47v-44.7h40.7c1.19,0,2.27,.23,3.18,.69,.9,.45,1.65,1.02,2.23,1.69,.58,.67,1.02,1.43,1.32,2.27s.45,1.64,.45,2.38v5.87c0,.74-.15,1.53-.45,2.37-.3,.85-.75,1.61-1.32,2.28-.58,.67-1.33,1.24-2.23,1.68-.92,.46-1.99,.7-3.18,.7h-26.01v.51l26.63,24.26h11.61l-18.25-16.75h6.02c2.38,0,4.5-.48,6.31-1.42,1.83-.95,3.37-2.17,4.58-3.62,1.23-1.47,2.17-3.12,2.81-4.91,.63-1.79,.96-3.5,.96-5.1v-5.87c0-1.65-.33-3.38-.96-5.14Z"/><path class="cls-3" d="M871.55,373.31c-.63-1.76-1.58-3.4-2.83-4.86-1.24-1.46-2.8-2.69-4.63-3.64-1.81-.94-3.93-1.41-6.31-1.41h-33.35c-2.39,0-4.51,.47-6.32,1.41-1.83,.95-3.37,2.17-4.58,3.63-1.23,1.47-2.17,3.11-2.8,4.87-.64,1.76-.96,3.49-.96,5.14v22.62c0,1.6,.32,3.32,.96,5.11,.63,1.78,1.57,3.43,2.8,4.9,1.21,1.45,2.75,2.68,4.58,3.63,1.81,.94,3.93,1.41,6.32,1.41h33.35c2.38,0,4.5-.47,6.31-1.41,1.83-.96,3.39-2.18,4.63-3.64,1.25-1.46,2.2-3.11,2.83-4.89,.64-1.79,.96-3.51,.96-5.11v-22.62c0-1.65-.32-3.38-.96-5.14Zm-6.59,27.76c0,.74-.15,1.54-.45,2.37-.3,.85-.74,1.62-1.32,2.28-.58,.67-1.33,1.24-2.23,1.69-.91,.46-1.99,.69-3.18,.69h-33.35c-1.15,0-2.2-.23-3.11-.69-.9-.45-1.66-1.01-2.26-1.67-.6-.67-1.07-1.44-1.37-2.3-.3-.83-.45-1.63-.45-2.37v-22.62c0-.74,.15-1.54,.45-2.38,.3-.85,.77-1.62,1.38-2.29,.6-.66,1.35-1.22,2.25-1.67,.91-.46,1.96-.69,3.11-.69h33.35c1.19,0,2.27,.23,3.18,.69,.9,.45,1.65,1.02,2.23,1.69,.58,.67,1.02,1.43,1.32,2.27s.45,1.64,.45,2.38v22.62Z"/><path class="cls-3" d="M957.5,363.4v37.67c0,.74-.15,1.54-.45,2.37-.3,.85-.74,1.61-1.32,2.28-.58,.67-1.33,1.24-2.23,1.69-.91,.46-1.99,.69-3.18,.69h-33.51c-1.15,0-2.19-.23-3.11-.69-.9-.45-1.65-1.01-2.25-1.67-.61-.67-1.07-1.44-1.38-2.3-.3-.83-.45-1.63-.45-2.37v-37.67h-7.47v37.67c0,1.6,.32,3.32,.96,5.11,.63,1.78,1.58,3.43,2.8,4.9,1.21,1.45,2.75,2.68,4.59,3.63,1.8,.94,3.92,1.41,6.31,1.41h33.51c2.38,0,4.5-.47,6.31-1.41,1.83-.95,3.37-2.17,4.58-3.63,1.23-1.47,2.17-3.12,2.8-4.9,.64-1.79,.97-3.51,.97-5.11v-37.67h-7.48Z"/><path class="cls-3" d="M1056.55,373.34c-.63-1.78-1.57-3.43-2.8-4.9-1.21-1.46-2.75-2.68-4.58-3.63-1.81-.94-3.93-1.41-6.31-1.41h-48.17v8.02h48.17c1.19,0,2.27,.23,3.18,.69,.9,.45,1.65,1.02,2.23,1.69,.58,.67,1.02,1.43,1.32,2.27,.3,.84,.45,1.64,.45,2.38v5.87c0,.74-.15,1.53-.45,2.37-.3,.85-.74,1.61-1.32,2.28-.58,.67-1.33,1.24-2.23,1.68-.92,.46-1.99,.7-3.18,.7h-48.17v24.77h7.47v-16.75h40.7c2.38,0,4.5-.48,6.31-1.42,1.83-.95,3.37-2.17,4.58-3.62,1.23-1.47,2.17-3.12,2.8-4.91,.64-1.79,.97-3.5,.97-5.1v-5.87c0-1.6-.33-3.32-.97-5.11Z"/></g></svg>